<svg width="391" height="214" viewBox="0 0 391 214" fill="none" xmlns="http://www.w3.org/2000/svg">
<path d="M112.914 2.94141L138.397 81.7119H223.926L221.448 83.5195L200.83 98.5645H141.322L122.463 42.249L103.604 98.5645H42.5742L91.9482 133.369L73.0889 189.684L122.463 154.879L171.837 189.684L152.978 133.369L157.569 130.132L154.731 132.203L180.216 210.979L181.164 213.91L178.675 212.094L111.963 163.413L45.251 212.094L42.7617 213.91L43.71 210.979L69.1934 132.203L2.47754 83.5195L0 81.7119H85.5283L111.012 2.94141L111.963 0L112.914 2.94141Z" fill="url(#paint0_linear_12_795)"/>
<g filter="url(#filter0_di_12_795)">
<path d="M195.463 77.749C195.581 77.749 195.688 77.7919 195.773 77.8603L195.775 77.8584L200.775 81.8584C200.991 82.0309 201.026 82.3459 200.854 82.5615C200.681 82.7771 200.366 82.8121 200.15 82.6396L195.963 79.2891V82.2871C195.963 82.5632 195.739 82.7871 195.463 82.7871C195.187 82.7871 194.963 82.5632 194.963 82.2871V78.249C194.963 77.9729 195.187 77.749 195.463 77.749ZM181.513 34.7539C181.595 34.7621 181.671 34.7881 181.736 34.831C181.792 34.8676 181.843 34.9151 181.882 34.9746C181.891 34.9881 181.896 35.0035 181.903 35.0176C181.911 35.0315 181.919 35.0449 181.925 35.0596C181.93 35.0726 181.933 35.0863 181.938 35.0996C181.943 35.1176 181.95 35.1355 181.953 35.1543C181.957 35.1744 181.958 35.1946 181.959 35.2148C181.96 35.2262 181.963 35.2375 181.963 35.249V82.2598C181.963 82.5359 181.739 82.7598 181.463 82.7598C181.187 82.7598 180.963 82.5359 180.963 82.2598V36.1738L171.963 42.0732V53.249C171.963 53.5252 171.739 53.749 171.463 53.749C171.187 53.749 170.963 53.5252 170.963 53.249V41.9492C170.963 41.9256 170.966 41.9026 170.969 41.8799C170.94 41.6924 171.02 41.4966 171.188 41.3857L181.178 34.8379C181.208 34.8167 181.241 34.7992 181.276 34.7852C181.286 34.7813 181.296 34.7796 181.306 34.7764C181.326 34.7695 181.347 34.7619 181.368 34.7578C181.388 34.7539 181.409 34.7533 181.429 34.7519C181.44 34.7512 181.451 34.749 181.463 34.749H181.47C181.484 34.7492 181.498 34.7525 181.513 34.7539ZM196.047 70.9717C196.2 70.742 196.511 70.6799 196.74 70.833L208.743 78.835C208.876 78.9248 208.963 79.0768 208.963 79.249V82.249C208.963 82.2599 208.96 82.2706 208.959 82.2812C208.958 82.3009 208.957 82.3203 208.953 82.3398C208.949 82.36 208.944 82.3792 208.938 82.3984C208.934 82.4098 208.931 82.4214 208.927 82.4326C208.92 82.4504 208.91 82.4667 208.901 82.4834C208.895 82.4947 208.892 82.5075 208.885 82.5185C208.883 82.5207 208.881 82.5223 208.88 82.5244C208.87 82.5393 208.857 82.5517 208.846 82.5654C208.836 82.5768 208.829 82.5893 208.818 82.5996C208.756 82.663 208.677 82.7085 208.588 82.7314C208.582 82.7331 208.576 82.7359 208.569 82.7373C208.553 82.7409 208.536 82.7413 208.519 82.7432C208.502 82.7451 208.485 82.7478 208.468 82.748C208.466 82.7481 208.465 82.749 208.463 82.749C208.452 82.749 208.441 82.7458 208.431 82.7451C208.41 82.7438 208.39 82.743 208.37 82.7393C208.353 82.736 208.337 82.7305 208.32 82.7256C208.306 82.7212 208.291 82.7177 208.276 82.7119C208.261 82.7056 208.246 82.6973 208.231 82.6894C208.219 82.6829 208.205 82.6786 208.193 82.6709L195.693 74.6699C195.461 74.5211 195.394 74.2129 195.542 73.9805C195.691 73.7479 196 73.6794 196.232 73.8281L207.963 81.335V79.5166L196.186 71.665C195.956 71.5118 195.894 71.2014 196.047 70.9717ZM183.763 30.1006C183.983 29.9639 184.268 30.0221 184.422 30.2246C184.436 30.2332 184.452 30.2407 184.466 30.251L194.76 37.8467C194.77 37.8541 194.778 37.864 194.787 37.8721C194.8 37.8832 194.813 37.8938 194.825 37.9062C194.835 37.9164 194.843 37.9277 194.852 37.9385C194.864 37.954 194.876 37.9694 194.887 37.9863C194.892 37.9955 194.897 38.0051 194.902 38.0146C194.912 38.033 194.921 38.0516 194.929 38.0713C194.933 38.0825 194.936 38.094 194.939 38.1055C194.945 38.125 194.951 38.1446 194.954 38.165C194.957 38.1806 194.958 38.1962 194.959 38.2119C194.96 38.2242 194.963 38.2365 194.963 38.249V50.249C194.963 50.2585 194.96 50.268 194.96 50.2773C194.959 50.2955 194.957 50.3132 194.954 50.331C194.951 50.3471 194.947 50.3625 194.943 50.3779C194.939 50.3934 194.935 50.4088 194.93 50.4238C194.924 50.4401 194.916 50.4553 194.908 50.4707C194.902 50.483 194.896 50.495 194.889 50.5068C194.879 50.5226 194.869 50.5372 194.857 50.5518C194.848 50.5639 194.839 50.5756 194.828 50.5869C194.817 50.5993 194.805 50.6109 194.792 50.6221C194.781 50.6317 194.77 50.6407 194.758 50.6494C194.742 50.6612 194.725 50.6718 194.708 50.6816C194.701 50.6858 194.694 50.6925 194.687 50.6963L187.93 54.0742C187.95 54.1288 187.963 54.1873 187.963 54.249V81.749C187.963 82.0252 187.739 82.249 187.463 82.249C187.187 82.249 186.963 82.0252 186.963 81.749V54.249C186.963 54.1574 186.988 54.0719 187.031 53.998C187.026 53.9896 187.02 53.9815 187.016 53.9727C186.892 53.7258 186.993 53.4253 187.239 53.3018L193.963 49.9394V38.501L183.985 31.1387L168.891 40.4883L169.054 53.0674C169.057 53.3433 168.837 53.5697 168.561 53.5732C168.285 53.5765 168.058 53.3559 168.055 53.0801L167.889 40.25C167.887 40.075 167.974 39.9193 168.109 39.8281C168.143 39.7884 168.181 39.7514 168.228 39.7227L183.763 30.1006ZM177.963 55.9648C178.239 55.9649 178.463 56.1887 178.463 56.4648C178.463 56.5143 178.453 56.5613 178.439 56.6064C178.515 56.777 178.495 56.9825 178.365 57.1338L172.963 63.4551V81.249C172.963 81.5252 172.739 81.749 172.463 81.749C172.187 81.749 171.963 81.5252 171.963 81.249V63.249C171.963 63.085 172.043 62.9407 172.165 62.8496L177.192 56.9639H172.838L172.836 56.9648H168.497L162.954 62.1631C162.959 62.1911 162.963 62.2196 162.963 62.249V81.249C162.963 81.5252 162.739 81.749 162.463 81.749C162.187 81.749 161.963 81.5252 161.963 81.249V62.249C161.963 62.1946 161.973 62.1428 161.989 62.0937C161.931 61.9152 161.975 61.7122 162.121 61.5752L167.955 56.1016C168.038 56.0235 168.142 55.9813 168.247 55.9707V55.9648H177.963ZM196.047 63.9717C196.2 63.742 196.511 63.6799 196.74 63.833L208.626 71.7568C208.871 71.7939 209.056 72.0058 209.051 72.2598L208.963 76.2598C208.963 76.2716 208.959 76.2833 208.958 76.2949C208.956 76.3138 208.955 76.3328 208.951 76.3516C208.947 76.3701 208.94 76.3875 208.935 76.4053C208.931 76.4173 208.928 76.4296 208.923 76.4414C208.914 76.4627 208.902 76.4823 208.891 76.5019C208.886 76.5096 208.884 76.5188 208.879 76.5264C208.878 76.5278 208.876 76.5288 208.875 76.5303C208.862 76.5497 208.846 76.5667 208.83 76.584C208.824 76.5912 208.818 76.5997 208.812 76.6064C208.772 76.6448 208.726 76.6744 208.676 76.6982C208.667 76.7025 208.659 76.7082 208.649 76.7119C208.631 76.7193 208.612 76.7243 208.593 76.7295C208.581 76.7326 208.57 76.737 208.559 76.7393C208.541 76.7427 208.523 76.7426 208.505 76.7441C208.49 76.7455 208.474 76.7481 208.459 76.748C208.457 76.748 208.454 76.7491 208.452 76.749C208.441 76.7488 208.429 76.7451 208.418 76.7441C208.398 76.7424 208.378 76.7405 208.358 76.7363C208.347 76.7339 208.336 76.7307 208.325 76.7275C208.304 76.7215 208.283 76.715 208.263 76.706C208.248 76.6998 208.235 76.6921 208.222 76.6846C208.21 76.678 208.197 76.6727 208.186 76.665L196.186 68.665C195.956 68.5118 195.894 68.2014 196.047 67.9717C196.2 67.742 196.511 67.6799 196.74 67.833L207.982 75.3271L208.043 72.5703L196.186 64.665C195.956 64.5118 195.894 64.2014 196.047 63.9717ZM196.047 56.9717C196.2 56.742 196.511 56.6799 196.74 56.833L208.626 64.7568C208.871 64.7939 209.056 65.0058 209.051 65.2598L208.963 69.2598C208.963 69.2716 208.959 69.2833 208.958 69.2949C208.956 69.3138 208.955 69.3328 208.951 69.3516C208.947 69.3701 208.94 69.3875 208.935 69.4053C208.931 69.4173 208.928 69.4296 208.923 69.4414C208.914 69.4627 208.902 69.4823 208.891 69.5019C208.886 69.5096 208.884 69.5188 208.879 69.5264C208.878 69.5278 208.876 69.5288 208.875 69.5303C208.862 69.5497 208.846 69.5667 208.83 69.584C208.824 69.5912 208.818 69.5997 208.812 69.6064C208.772 69.6448 208.726 69.6744 208.676 69.6982C208.667 69.7025 208.659 69.7082 208.649 69.7119C208.631 69.7193 208.612 69.7243 208.593 69.7295C208.581 69.7326 208.57 69.737 208.559 69.7393C208.541 69.7427 208.523 69.7426 208.505 69.7441C208.49 69.7455 208.474 69.7481 208.459 69.748C208.457 69.748 208.454 69.7491 208.452 69.749C208.441 69.7488 208.429 69.7451 208.418 69.7441C208.398 69.7424 208.378 69.7405 208.358 69.7363C208.347 69.7339 208.336 69.7307 208.325 69.7275C208.304 69.7215 208.283 69.715 208.263 69.706C208.248 69.6998 208.235 69.6921 208.222 69.6846C208.21 69.678 208.197 69.6727 208.186 69.665L196.186 61.665C195.956 61.5118 195.894 61.2014 196.047 60.9717C196.2 60.742 196.511 60.6799 196.74 60.833L207.982 68.3271L208.043 65.5703L196.186 57.665C195.956 57.5118 195.894 57.2014 196.047 56.9717ZM196.047 49.9717C196.2 49.742 196.511 49.6799 196.74 49.833L208.626 57.7568C208.871 57.7939 209.056 58.0058 209.051 58.2598L208.963 62.2598C208.963 62.2716 208.959 62.2833 208.958 62.2949C208.956 62.3138 208.955 62.3328 208.951 62.3516C208.947 62.3701 208.94 62.3875 208.935 62.4053C208.931 62.4173 208.928 62.4296 208.923 62.4414C208.914 62.4627 208.902 62.4823 208.891 62.5019C208.886 62.5096 208.884 62.5188 208.879 62.5264C208.878 62.5278 208.876 62.5288 208.875 62.5303C208.862 62.5497 208.846 62.5667 208.83 62.584C208.824 62.5912 208.818 62.5997 208.812 62.6064C208.772 62.6448 208.726 62.6744 208.676 62.6982C208.667 62.7025 208.659 62.7082 208.649 62.7119C208.631 62.7193 208.612 62.7243 208.593 62.7295C208.581 62.7326 208.57 62.737 208.559 62.7393C208.541 62.7427 208.523 62.7426 208.505 62.7441C208.49 62.7455 208.474 62.7481 208.459 62.748C208.457 62.748 208.454 62.7491 208.452 62.749C208.441 62.7488 208.429 62.7451 208.418 62.7441C208.398 62.7424 208.378 62.7405 208.358 62.7363C208.347 62.7339 208.336 62.7307 208.325 62.7275C208.304 62.7215 208.283 62.715 208.263 62.706C208.248 62.6998 208.235 62.6921 208.222 62.6846C208.21 62.678 208.197 62.6727 208.186 62.665L196.186 54.665C195.956 54.5118 195.894 54.2014 196.047 53.9717C196.2 53.742 196.511 53.6799 196.74 53.833L207.982 61.3271L208.043 58.5703L196.186 50.665C195.956 50.5118 195.894 50.2014 196.047 49.9717ZM184.476 8.75C184.483 8.75017 184.49 8.75147 184.497 8.75195C184.521 8.75359 184.545 8.75558 184.569 8.76074C184.579 8.76289 184.589 8.76675 184.599 8.76953C184.62 8.77557 184.641 8.78204 184.662 8.79101C184.67 8.79466 184.678 8.79956 184.687 8.80371C184.708 8.81424 184.728 8.82518 184.748 8.83886C184.751 8.84061 184.753 8.84195 184.756 8.84375L202.756 21.8437C202.767 21.8515 202.775 21.8617 202.785 21.8701C202.798 21.8814 202.812 21.8917 202.824 21.9043C202.834 21.9143 202.841 21.9259 202.85 21.9365C202.861 21.9506 202.873 21.9642 202.883 21.9795C202.892 21.9936 202.899 22.0086 202.906 22.0234C202.913 22.0376 202.921 22.0515 202.927 22.0664C202.932 22.0795 202.935 22.093 202.939 22.1064C202.945 22.1254 202.951 22.1443 202.954 22.1641C202.956 22.1767 202.957 22.1894 202.958 22.2021C202.959 22.2177 202.963 22.2331 202.963 22.249V50.251C202.963 50.5271 202.739 50.751 202.463 50.751C202.187 50.751 201.963 50.5271 201.963 50.251V22.5039L184.516 9.90234L179.963 14.4551V28.2041L184.963 23.2041V14.249C184.963 14.1949 184.973 14.1435 184.989 14.0947C184.993 14.0826 184.995 14.0696 185 14.0576C185.038 13.9662 185.103 13.8886 185.184 13.834C185.195 13.8261 185.208 13.8203 185.221 13.8135C185.264 13.7892 185.311 13.7701 185.361 13.7598C185.394 13.753 185.427 13.7493 185.46 13.749H185.463C185.468 13.749 185.474 13.7498 185.479 13.75C185.507 13.7509 185.535 13.7532 185.562 13.7588C185.616 13.7696 185.665 13.791 185.711 13.8174C185.72 13.8229 185.731 13.8268 185.74 13.833L199.586 23.0557C199.703 23.1339 199.775 23.2533 199.799 23.3818C199.899 23.4732 199.963 23.603 199.963 23.749V48.249C199.963 48.5252 199.739 48.749 199.463 48.749C199.187 48.749 198.963 48.5252 198.963 48.249V23.8418L185.963 15.1826V23.0537C186.091 23.2478 186.069 23.5117 185.898 23.6826L179.734 29.8477C179.539 30.0426 179.223 30.0425 179.027 29.8477C178.857 29.6769 178.835 29.4128 178.963 29.2187V14.249C178.963 14.1211 179.012 13.9931 179.109 13.8955L184.109 8.8955C184.112 8.89243 184.116 8.88969 184.119 8.88671C184.127 8.87885 184.137 8.87243 184.146 8.86523C184.164 8.85 184.182 8.83544 184.202 8.82324C184.206 8.82072 184.211 8.81879 184.215 8.8164C184.237 8.80343 184.26 8.79138 184.284 8.78222C184.294 8.77858 184.304 8.77648 184.313 8.77343C184.336 8.76645 184.358 8.75965 184.381 8.75585C184.386 8.75494 184.392 8.75561 184.397 8.75488C184.423 8.75145 184.449 8.74935 184.476 8.75Z" fill="#FFE554"/>
</g>
<g filter="url(#filter1_d_12_795)">
<path d="M139.423 107.289C139.423 108.302 139.676 109.196 140.183 109.969C140.716 110.716 141.396 111.396 142.223 112.009C143.076 112.622 143.97 113.236 144.903 113.849C145.916 114.489 146.876 115.169 147.783 115.889C148.716 116.582 149.476 117.396 150.063 118.329C150.676 119.236 150.983 120.329 150.983 121.609C150.983 123.022 150.596 124.262 149.823 125.329C149.076 126.396 148.05 127.236 146.743 127.849C145.463 128.436 143.996 128.729 142.343 128.729C141.543 128.729 140.703 128.649 139.823 128.489C138.97 128.329 138.183 128.129 137.463 127.889C136.77 127.649 136.263 127.396 135.943 127.129C135.836 127.049 135.743 126.969 135.663 126.889C135.583 126.782 135.543 126.609 135.543 126.369L135.423 120.009C135.396 119.876 135.45 119.809 135.583 119.809C135.743 119.782 135.836 119.822 135.863 119.929C136.263 120.756 136.703 121.636 137.183 122.569C137.663 123.476 138.196 124.316 138.783 125.089C139.396 125.862 140.076 126.502 140.823 127.009C141.57 127.489 142.423 127.729 143.383 127.729C143.996 127.729 144.583 127.622 145.143 127.409C145.703 127.196 146.156 126.809 146.503 126.249C146.876 125.689 147.063 124.916 147.063 123.929C147.063 122.676 146.783 121.609 146.223 120.729C145.663 119.822 144.943 119.036 144.063 118.369C143.183 117.676 142.263 117.022 141.303 116.409C140.37 115.796 139.476 115.169 138.623 114.529C137.77 113.862 137.076 113.116 136.543 112.289C136.01 111.436 135.743 110.422 135.743 109.249C135.743 107.756 136.156 106.542 136.983 105.609C137.836 104.649 138.903 103.942 140.183 103.489C141.49 103.036 142.81 102.809 144.143 102.809C145.103 102.809 146.063 102.902 147.023 103.089C147.983 103.249 148.743 103.449 149.303 103.689C149.57 103.796 149.73 103.916 149.783 104.049C149.863 104.182 149.903 104.329 149.903 104.489V110.369C149.903 110.449 149.836 110.516 149.703 110.569C149.596 110.596 149.516 110.569 149.463 110.489C149.303 110.169 149.076 109.649 148.783 108.929C148.49 108.182 148.103 107.409 147.623 106.609C147.143 105.809 146.53 105.129 145.783 104.569C145.036 103.982 144.13 103.689 143.063 103.689C142.396 103.689 141.783 103.822 141.223 104.089C140.69 104.356 140.25 104.756 139.903 105.289C139.583 105.796 139.423 106.462 139.423 107.289ZM161.929 104.169C160.302 104.169 158.915 104.716 157.769 105.809C156.649 106.876 155.755 108.396 155.089 110.369C155.062 110.449 154.982 110.489 154.849 110.489C154.715 110.462 154.649 110.409 154.649 110.329C154.702 109.956 154.755 109.436 154.809 108.769C154.862 108.076 154.915 107.329 154.969 106.529C155.049 105.729 155.102 104.956 155.129 104.209C155.182 103.462 155.209 102.849 155.209 102.369C155.209 102.236 155.275 102.169 155.409 102.169C155.569 102.169 155.649 102.236 155.649 102.369C155.649 102.636 155.782 102.836 156.049 102.969C156.342 103.076 156.662 103.156 157.009 103.209C157.382 103.236 157.689 103.249 157.929 103.249C160.222 103.329 162.902 103.369 165.969 103.369C167.835 103.369 169.329 103.356 170.449 103.329C171.569 103.276 172.649 103.249 173.689 103.249C174.649 103.249 175.369 103.196 175.849 103.089C176.355 102.956 176.675 102.676 176.809 102.249C176.835 102.142 176.915 102.089 177.049 102.089C177.209 102.089 177.289 102.142 177.289 102.249C177.235 102.676 177.182 103.276 177.129 104.049C177.102 104.796 177.062 105.596 177.009 106.449C176.982 107.276 176.955 108.049 176.929 108.769C176.902 109.462 176.889 109.982 176.889 110.329C176.889 110.409 176.822 110.449 176.689 110.449C176.555 110.449 176.475 110.409 176.449 110.329C176.049 108.222 175.289 106.676 174.169 105.689C173.075 104.676 171.742 104.169 170.169 104.169C169.635 104.169 169.222 104.249 168.929 104.409C168.662 104.542 168.475 104.782 168.369 105.129C168.289 105.476 168.249 105.956 168.249 106.569V125.009C168.249 125.782 168.329 126.369 168.489 126.769C168.649 127.169 168.955 127.436 169.409 127.569C169.889 127.702 170.609 127.769 171.569 127.769C171.649 127.769 171.689 127.849 171.689 128.009C171.689 128.169 171.649 128.249 171.569 128.249C170.822 128.249 169.982 128.236 169.049 128.209C168.115 128.182 167.089 128.169 165.969 128.169C164.902 128.169 163.902 128.182 162.969 128.209C162.035 128.236 161.182 128.249 160.409 128.249C160.329 128.249 160.289 128.169 160.289 128.009C160.289 127.849 160.329 127.769 160.409 127.769C161.342 127.769 162.049 127.702 162.529 127.569C163.009 127.436 163.329 127.169 163.489 126.769C163.675 126.369 163.769 125.782 163.769 125.009V106.489C163.769 105.902 163.715 105.449 163.609 105.129C163.529 104.782 163.355 104.542 163.089 104.409C162.822 104.249 162.435 104.169 161.929 104.169ZM182.779 119.089L183.379 117.969H194.899L195.179 119.089H182.779ZM204.619 127.769C204.753 127.769 204.819 127.849 204.819 128.009C204.819 128.169 204.753 128.249 204.619 128.249C203.819 128.249 202.979 128.222 202.099 128.169C201.246 128.116 200.419 128.089 199.619 128.089C198.713 128.089 197.926 128.116 197.259 128.169C196.593 128.222 195.846 128.249 195.019 128.249C194.913 128.249 194.859 128.169 194.859 128.009C194.859 127.849 194.913 127.769 195.019 127.769C196.113 127.769 196.739 127.556 196.899 127.129C197.086 126.676 196.846 125.796 196.179 124.489L188.059 108.449L190.019 105.009L182.059 122.569C181.339 124.169 181.326 125.436 182.019 126.369C182.713 127.302 183.806 127.769 185.299 127.769C185.433 127.769 185.499 127.849 185.499 128.009C185.499 128.169 185.433 128.249 185.299 128.249C184.499 128.249 183.766 128.222 183.099 128.169C182.433 128.116 181.593 128.089 180.579 128.089C179.539 128.089 178.699 128.116 178.059 128.169C177.446 128.222 176.686 128.249 175.779 128.249C175.673 128.249 175.619 128.169 175.619 128.009C175.619 127.849 175.673 127.769 175.779 127.769C176.499 127.769 177.113 127.622 177.619 127.329C178.153 127.009 178.673 126.449 179.179 125.649C179.713 124.822 180.313 123.662 180.979 122.169L189.659 103.089C189.686 103.009 189.806 102.969 190.019 102.969C190.233 102.942 190.353 102.982 190.379 103.089L200.379 122.769C201.019 124.022 201.566 125.022 202.019 125.769C202.499 126.489 202.939 127.009 203.339 127.329C203.766 127.622 204.193 127.769 204.619 127.769ZM225.772 128.249C225.372 128.249 224.719 127.756 223.812 126.769C222.932 125.756 221.866 124.302 220.612 122.409C219.359 120.516 217.946 118.249 216.372 115.609L220.052 114.489C222.186 117.716 223.999 120.302 225.492 122.249C227.012 124.196 228.359 125.609 229.532 126.489C230.706 127.342 231.826 127.769 232.892 127.769C232.946 127.769 232.972 127.849 232.972 128.009C232.972 128.169 232.946 128.249 232.892 128.249C231.026 128.249 229.506 128.249 228.332 128.249C227.159 128.249 226.306 128.249 225.772 128.249ZM217.172 103.129C219.626 103.129 221.506 103.582 222.812 104.489C224.146 105.369 224.812 106.609 224.812 108.209C224.812 109.782 224.372 111.182 223.492 112.409C222.612 113.609 221.479 114.542 220.092 115.209C218.732 115.876 217.292 116.209 215.772 116.209C215.399 116.209 215.012 116.209 214.612 116.209C214.239 116.209 213.892 116.196 213.572 116.169V125.009C213.572 125.782 213.639 126.369 213.772 126.769C213.906 127.169 214.172 127.436 214.572 127.569C214.972 127.702 215.586 127.769 216.412 127.769C216.466 127.769 216.492 127.849 216.492 128.009C216.492 128.169 216.466 128.249 216.412 128.249C215.719 128.249 214.946 128.236 214.092 128.209C213.239 128.182 212.306 128.169 211.292 128.169C210.332 128.169 209.412 128.182 208.532 128.209C207.679 128.236 206.906 128.249 206.212 128.249C206.132 128.249 206.092 128.169 206.092 128.009C206.092 127.849 206.132 127.769 206.212 127.769C207.039 127.769 207.652 127.702 208.052 127.569C208.452 127.436 208.719 127.169 208.852 126.769C209.012 126.369 209.092 125.782 209.092 125.009V106.489C209.092 105.716 209.026 105.142 208.892 104.769C208.759 104.369 208.492 104.102 208.092 103.969C207.692 103.809 207.079 103.729 206.252 103.729C206.199 103.729 206.172 103.649 206.172 103.489C206.172 103.329 206.199 103.249 206.252 103.249C206.946 103.249 207.719 103.276 208.572 103.329C209.426 103.356 210.332 103.369 211.292 103.369C212.172 103.369 213.132 103.329 214.172 103.249C215.239 103.169 216.239 103.129 217.172 103.129ZM220.252 109.729C220.252 108.156 220.092 106.956 219.772 106.129C219.452 105.302 219.012 104.742 218.452 104.449C217.892 104.129 217.252 103.969 216.532 103.969C215.466 103.969 214.706 104.169 214.252 104.569C213.799 104.969 213.572 105.636 213.572 106.569V115.049C213.946 115.102 214.346 115.142 214.772 115.169C215.199 115.196 215.572 115.209 215.892 115.209C217.466 115.209 218.586 114.782 219.252 113.929C219.919 113.049 220.252 111.649 220.252 109.729ZM250.957 125.009C250.957 125.782 251.024 126.369 251.157 126.769C251.29 127.169 251.557 127.436 251.957 127.569C252.357 127.702 252.97 127.769 253.797 127.769C253.877 127.769 253.917 127.849 253.917 128.009C253.917 128.169 253.877 128.249 253.797 128.249C253.104 128.249 252.33 128.236 251.477 128.209C250.624 128.182 249.69 128.169 248.677 128.169C247.717 128.169 246.797 128.182 245.917 128.209C245.037 128.236 244.25 128.249 243.557 128.249C243.504 128.249 243.477 128.169 243.477 128.009C243.477 127.849 243.504 127.769 243.557 127.769C244.384 127.769 244.997 127.702 245.397 127.569C245.824 127.436 246.104 127.169 246.237 126.769C246.397 126.369 246.477 125.782 246.477 125.009V106.489C246.477 105.716 246.397 105.142 246.237 104.769C246.104 104.369 245.824 104.102 245.397 103.969C244.997 103.809 244.384 103.729 243.557 103.729C243.504 103.729 243.477 103.649 243.477 103.489C243.477 103.329 243.504 103.249 243.557 103.249C244.25 103.249 245.037 103.276 245.917 103.329C246.797 103.356 247.717 103.369 248.677 103.369C249.69 103.369 250.624 103.356 251.477 103.329C252.357 103.276 253.13 103.249 253.797 103.249C253.877 103.249 253.917 103.329 253.917 103.489C253.917 103.649 253.877 103.729 253.797 103.729C252.997 103.729 252.384 103.809 251.957 103.969C251.557 104.129 251.29 104.409 251.157 104.809C251.024 105.209 250.957 105.796 250.957 106.569V125.009ZM260.629 123.169V104.169L261.829 104.249V123.169C261.829 124.582 262.122 125.702 262.709 126.529C263.295 127.356 264.109 127.769 265.149 127.769C265.202 127.769 265.229 127.849 265.229 128.009C265.229 128.169 265.202 128.249 265.149 128.249C264.562 128.249 263.949 128.236 263.309 128.209C262.695 128.182 262.015 128.169 261.269 128.169C260.469 128.169 259.682 128.182 258.909 128.209C258.162 128.236 257.469 128.249 256.829 128.249C256.749 128.249 256.709 128.169 256.709 128.009C256.709 127.849 256.749 127.769 256.829 127.769C258.002 127.769 258.922 127.356 259.589 126.529C260.282 125.702 260.629 124.582 260.629 123.169ZM281.029 128.849C281.029 128.929 280.962 128.969 280.829 128.969C280.722 128.996 280.642 128.996 280.589 128.969L260.869 106.529C259.909 105.436 259.095 104.702 258.429 104.329C257.762 103.929 257.095 103.729 256.429 103.729C256.375 103.729 256.349 103.649 256.349 103.489C256.349 103.329 256.375 103.249 256.429 103.249C256.962 103.249 257.509 103.262 258.069 103.289C258.629 103.316 259.149 103.329 259.629 103.329C260.589 103.329 261.455 103.316 262.229 103.289C263.002 103.262 263.602 103.249 264.029 103.249C264.375 103.249 264.629 103.409 264.789 103.729C264.975 104.022 265.389 104.556 266.029 105.329L280.709 122.249L281.029 128.849ZM281.029 108.369V128.849L279.869 127.649V108.369C279.869 106.956 279.575 105.836 278.989 105.009C278.402 104.156 277.589 103.729 276.549 103.729C276.495 103.729 276.469 103.649 276.469 103.489C276.469 103.329 276.495 103.249 276.549 103.249C277.135 103.249 277.735 103.276 278.349 103.329C278.989 103.356 279.682 103.369 280.429 103.369C281.149 103.369 281.855 103.356 282.549 103.329C283.242 103.276 283.882 103.249 284.469 103.249C284.522 103.249 284.549 103.329 284.549 103.489C284.549 103.649 284.522 103.729 284.469 103.729C283.402 103.729 282.562 104.156 281.949 105.009C281.335 105.836 281.029 106.956 281.029 108.369ZM286.323 128.249C286.243 128.249 286.203 128.169 286.203 128.009C286.203 127.849 286.243 127.769 286.323 127.769C287.23 127.769 287.896 127.702 288.323 127.569C288.776 127.436 289.07 127.169 289.203 126.769C289.363 126.369 289.443 125.782 289.443 125.009V106.489C289.443 105.716 289.376 105.142 289.243 104.769C289.11 104.369 288.843 104.102 288.443 103.969C288.043 103.809 287.43 103.729 286.603 103.729C286.523 103.729 286.483 103.649 286.483 103.489C286.483 103.329 286.523 103.249 286.603 103.249H303.563C303.83 103.249 303.963 103.369 303.963 103.609L304.043 108.929C304.043 108.982 303.976 109.022 303.843 109.049C303.71 109.076 303.616 109.049 303.563 108.969C303.136 107.396 302.416 106.249 301.403 105.529C300.39 104.782 299.056 104.409 297.403 104.409H296.203C295.403 104.409 294.816 104.582 294.443 104.929C294.07 105.276 293.883 105.809 293.883 106.529V124.849C293.883 125.649 293.99 126.262 294.203 126.689C294.416 127.089 294.83 127.369 295.443 127.529C296.056 127.689 296.963 127.769 298.163 127.769C298.216 127.769 298.243 127.849 298.243 128.009C298.243 128.169 298.216 128.249 298.163 128.249C297.256 128.249 296.27 128.236 295.203 128.209C294.163 128.182 292.936 128.169 291.523 128.169C290.563 128.169 289.63 128.182 288.723 128.209C287.816 128.236 287.016 128.249 286.323 128.249ZM301.563 119.769C301.563 118.702 301.15 117.862 300.323 117.249C299.496 116.609 298.296 116.289 296.723 116.289H291.763V115.169H296.763C298.336 115.169 299.523 114.889 300.323 114.329C301.123 113.769 301.523 113.022 301.523 112.089C301.523 112.036 301.603 112.009 301.763 112.009C301.923 112.009 302.003 112.036 302.003 112.089C302.003 112.996 301.99 113.702 301.963 114.209C301.963 114.689 301.963 115.196 301.963 115.729C301.963 116.396 301.976 117.049 302.003 117.689C302.03 118.329 302.043 119.022 302.043 119.769C302.043 119.849 301.963 119.889 301.803 119.889C301.643 119.889 301.563 119.849 301.563 119.769ZM327.061 128.249C326.661 128.249 326.008 127.756 325.101 126.769C324.221 125.756 323.155 124.302 321.901 122.409C320.648 120.516 319.235 118.249 317.661 115.609L321.341 114.489C323.475 117.716 325.288 120.302 326.781 122.249C328.301 124.196 329.648 125.609 330.821 126.489C331.995 127.342 333.115 127.769 334.181 127.769C334.235 127.769 334.261 127.849 334.261 128.009C334.261 128.169 334.235 128.249 334.181 128.249C332.315 128.249 330.795 128.249 329.621 128.249C328.448 128.249 327.595 128.249 327.061 128.249ZM318.461 103.129C320.915 103.129 322.795 103.582 324.101 104.489C325.435 105.369 326.101 106.609 326.101 108.209C326.101 109.782 325.661 111.182 324.781 112.409C323.901 113.609 322.768 114.542 321.381 115.209C320.021 115.876 318.581 116.209 317.061 116.209C316.688 116.209 316.301 116.209 315.901 116.209C315.528 116.209 315.181 116.196 314.861 116.169V125.009C314.861 125.782 314.928 126.369 315.061 126.769C315.195 127.169 315.461 127.436 315.861 127.569C316.261 127.702 316.875 127.769 317.701 127.769C317.755 127.769 317.781 127.849 317.781 128.009C317.781 128.169 317.755 128.249 317.701 128.249C317.008 128.249 316.235 128.236 315.381 128.209C314.528 128.182 313.595 128.169 312.581 128.169C311.621 128.169 310.701 128.182 309.821 128.209C308.968 128.236 308.195 128.249 307.501 128.249C307.421 128.249 307.381 128.169 307.381 128.009C307.381 127.849 307.421 127.769 307.501 127.769C308.328 127.769 308.941 127.702 309.341 127.569C309.741 127.436 310.008 127.169 310.141 126.769C310.301 126.369 310.381 125.782 310.381 125.009V106.489C310.381 105.716 310.315 105.142 310.181 104.769C310.048 104.369 309.781 104.102 309.381 103.969C308.981 103.809 308.368 103.729 307.541 103.729C307.488 103.729 307.461 103.649 307.461 103.489C307.461 103.329 307.488 103.249 307.541 103.249C308.235 103.249 309.008 103.276 309.861 103.329C310.715 103.356 311.621 103.369 312.581 103.369C313.461 103.369 314.421 103.329 315.461 103.249C316.528 103.169 317.528 103.129 318.461 103.129ZM321.541 109.729C321.541 108.156 321.381 106.956 321.061 106.129C320.741 105.302 320.301 104.742 319.741 104.449C319.181 104.129 318.541 103.969 317.821 103.969C316.755 103.969 315.995 104.169 315.541 104.569C315.088 104.969 314.861 105.636 314.861 106.569V115.049C315.235 115.102 315.635 115.142 316.061 115.169C316.488 115.196 316.861 115.209 317.181 115.209C318.755 115.209 319.875 114.782 320.541 113.929C321.208 113.049 321.541 111.649 321.541 109.729ZM340.631 119.089L341.231 117.969H352.751L353.031 119.089H340.631ZM362.471 127.769C362.604 127.769 362.671 127.849 362.671 128.009C362.671 128.169 362.604 128.249 362.471 128.249C361.671 128.249 360.831 128.222 359.951 128.169C359.098 128.116 358.271 128.089 357.471 128.089C356.564 128.089 355.778 128.116 355.111 128.169C354.444 128.222 353.698 128.249 352.871 128.249C352.764 128.249 352.711 128.169 352.711 128.009C352.711 127.849 352.764 127.769 352.871 127.769C353.964 127.769 354.591 127.556 354.751 127.129C354.938 126.676 354.698 125.796 354.031 124.489L345.911 108.449L347.871 105.009L339.911 122.569C339.191 124.169 339.178 125.436 339.871 126.369C340.564 127.302 341.658 127.769 343.151 127.769C343.284 127.769 343.351 127.849 343.351 128.009C343.351 128.169 343.284 128.249 343.151 128.249C342.351 128.249 341.618 128.222 340.951 128.169C340.284 128.116 339.444 128.089 338.431 128.089C337.391 128.089 336.551 128.116 335.911 128.169C335.298 128.222 334.538 128.249 333.631 128.249C333.524 128.249 333.471 128.169 333.471 128.009C333.471 127.849 333.524 127.769 333.631 127.769C334.351 127.769 334.964 127.622 335.471 127.329C336.004 127.009 336.524 126.449 337.031 125.649C337.564 124.822 338.164 123.662 338.831 122.169L347.511 103.089C347.538 103.009 347.658 102.969 347.871 102.969C348.084 102.942 348.204 102.982 348.231 103.089L358.231 122.769C358.871 124.022 359.418 125.022 359.871 125.769C360.351 126.489 360.791 127.009 361.191 127.329C361.618 127.622 362.044 127.769 362.471 127.769Z" fill="url(#paint1_linear_12_795)"/>
</g>
<path d="M177.613 162.349C177.08 162.349 176.413 162.324 175.613 162.274C174.813 162.224 174.08 162.199 173.413 162.199C172.813 162.199 172.238 162.207 171.688 162.224C171.138 162.241 170.646 162.249 170.213 162.249C170.18 162.249 170.163 162.199 170.163 162.099C170.163 161.999 170.18 161.949 170.213 161.949C170.73 161.949 171.113 161.907 171.363 161.824C171.63 161.741 171.805 161.574 171.888 161.324C171.988 161.074 172.038 160.707 172.038 160.224V148.649C172.038 148.166 171.996 147.807 171.913 147.574C171.83 147.324 171.655 147.157 171.388 147.074C171.138 146.974 170.763 146.924 170.263 146.924C170.213 146.924 170.188 146.874 170.188 146.774C170.188 146.674 170.213 146.624 170.263 146.624C170.696 146.624 171.18 146.641 171.713 146.674C172.246 146.691 172.821 146.699 173.438 146.699C174.038 146.699 174.696 146.682 175.413 146.649C176.13 146.599 176.746 146.574 177.263 146.574C178.996 146.574 180.505 146.907 181.788 147.574C183.071 148.241 184.071 149.149 184.788 150.299C185.505 151.449 185.863 152.741 185.863 154.174C185.863 155.424 185.646 156.557 185.213 157.574C184.78 158.574 184.18 159.432 183.413 160.149C182.646 160.849 181.763 161.391 180.763 161.774C179.78 162.157 178.73 162.349 177.613 162.349ZM177.363 161.774C178.413 161.774 179.346 161.507 180.163 160.974C180.98 160.424 181.621 159.624 182.088 158.574C182.555 157.524 182.788 156.241 182.788 154.724C182.788 153.307 182.571 152.024 182.138 150.874C181.705 149.724 181.096 148.816 180.313 148.149C179.53 147.466 178.596 147.124 177.513 147.124C176.546 147.124 175.855 147.216 175.438 147.399C175.021 147.582 174.813 148.016 174.813 148.699V159.949C174.813 160.566 174.971 161.024 175.288 161.324C175.621 161.624 176.313 161.774 177.363 161.774ZM192.818 162.549C191.735 162.549 190.81 162.324 190.043 161.874C189.293 161.424 188.718 160.832 188.318 160.099C187.935 159.349 187.743 158.549 187.743 157.699C187.743 156.716 187.985 155.824 188.468 155.024C188.952 154.224 189.618 153.582 190.468 153.099C191.318 152.616 192.293 152.374 193.393 152.374C194.377 152.374 195.16 152.599 195.743 153.049C196.343 153.499 196.643 154.232 196.643 155.249C196.643 155.466 196.627 155.649 196.593 155.799C196.56 155.949 196.485 156.024 196.368 156.024H193.968C194.002 155.074 193.91 154.316 193.693 153.749C193.477 153.166 193.06 152.874 192.443 152.874C191.777 152.874 191.243 153.216 190.843 153.899C190.46 154.582 190.268 155.491 190.268 156.624C190.268 157.591 190.418 158.424 190.718 159.124C191.018 159.824 191.46 160.366 192.043 160.749C192.627 161.132 193.343 161.324 194.193 161.324C194.693 161.324 195.11 161.266 195.443 161.149C195.793 161.016 196.177 160.841 196.593 160.624C196.627 160.591 196.668 160.607 196.718 160.674C196.785 160.741 196.802 160.799 196.768 160.849C196.152 161.466 195.518 161.907 194.868 162.174C194.235 162.424 193.552 162.549 192.818 162.549ZM189.393 156.049L189.368 155.574L194.843 155.474V156.024L189.393 156.049ZM208.743 152.599C208.776 152.599 208.793 152.649 208.793 152.749C208.793 152.849 208.776 152.899 208.743 152.899C208.259 152.899 207.826 153.082 207.443 153.449C207.076 153.816 206.726 154.382 206.393 155.149L203.318 162.249C203.284 162.332 203.193 162.374 203.043 162.374C202.909 162.374 202.818 162.332 202.768 162.249L198.943 154.674C198.576 153.907 198.259 153.424 197.993 153.224C197.726 153.007 197.409 152.899 197.043 152.899C196.993 152.899 196.968 152.849 196.968 152.749C196.968 152.649 196.993 152.599 197.043 152.599C197.326 152.599 197.643 152.607 197.993 152.624C198.359 152.641 198.851 152.649 199.468 152.649C200.151 152.649 200.734 152.641 201.218 152.624C201.701 152.607 202.151 152.599 202.568 152.599C202.618 152.599 202.643 152.649 202.643 152.749C202.643 152.849 202.618 152.899 202.568 152.899C202.051 152.899 201.651 152.966 201.368 153.099C201.084 153.232 201.043 153.491 201.243 153.874L204.243 159.524L202.968 161.724L205.693 155.124C205.976 154.441 205.976 153.899 205.693 153.499C205.426 153.099 204.959 152.899 204.293 152.899C204.259 152.899 204.243 152.849 204.243 152.749C204.243 152.649 204.259 152.599 204.293 152.599C204.693 152.599 205.068 152.607 205.418 152.624C205.784 152.641 206.251 152.649 206.818 152.649C207.218 152.649 207.543 152.641 207.793 152.624C208.059 152.607 208.376 152.599 208.743 152.599ZM214.278 162.549C213.195 162.549 212.27 162.324 211.503 161.874C210.753 161.424 210.178 160.832 209.778 160.099C209.395 159.349 209.203 158.549 209.203 157.699C209.203 156.716 209.445 155.824 209.928 155.024C210.412 154.224 211.078 153.582 211.928 153.099C212.778 152.616 213.753 152.374 214.853 152.374C215.837 152.374 216.62 152.599 217.203 153.049C217.803 153.499 218.103 154.232 218.103 155.249C218.103 155.466 218.087 155.649 218.053 155.799C218.02 155.949 217.945 156.024 217.828 156.024H215.428C215.462 155.074 215.37 154.316 215.153 153.749C214.937 153.166 214.52 152.874 213.903 152.874C213.237 152.874 212.703 153.216 212.303 153.899C211.92 154.582 211.728 155.491 211.728 156.624C211.728 157.591 211.878 158.424 212.178 159.124C212.478 159.824 212.92 160.366 213.503 160.749C214.087 161.132 214.803 161.324 215.653 161.324C216.153 161.324 216.57 161.266 216.903 161.149C217.253 161.016 217.637 160.841 218.053 160.624C218.087 160.591 218.128 160.607 218.178 160.674C218.245 160.741 218.262 160.799 218.228 160.849C217.612 161.466 216.978 161.907 216.328 162.174C215.695 162.424 215.012 162.549 214.278 162.549ZM210.853 156.049L210.828 155.574L216.303 155.474V156.024L210.853 156.049ZM219.728 162.249C219.694 162.249 219.678 162.199 219.678 162.099C219.678 161.999 219.694 161.949 219.728 161.949C220.244 161.949 220.594 161.832 220.778 161.599C220.978 161.349 221.078 160.891 221.078 160.224L221.103 147.524C221.103 146.957 221.053 146.549 220.953 146.299C220.853 146.032 220.661 145.899 220.378 145.899C220.161 145.899 219.844 145.991 219.428 146.174C219.378 146.191 219.328 146.149 219.278 146.049C219.228 145.949 219.219 145.891 219.253 145.874L222.928 144.149C222.961 144.132 222.994 144.124 223.028 144.124C223.111 144.124 223.203 144.166 223.303 144.249C223.403 144.316 223.453 144.382 223.453 144.449V160.224C223.453 160.891 223.544 161.349 223.728 161.599C223.911 161.832 224.261 161.949 224.778 161.949C224.844 161.949 224.878 161.999 224.878 162.099C224.878 162.199 224.844 162.249 224.778 162.249C224.461 162.249 224.078 162.241 223.628 162.224C223.194 162.207 222.736 162.199 222.253 162.199C221.769 162.199 221.311 162.207 220.878 162.224C220.444 162.241 220.061 162.249 219.728 162.249ZM231.467 162.574C230.417 162.574 229.509 162.332 228.742 161.849C227.975 161.366 227.384 160.724 226.967 159.924C226.55 159.107 226.342 158.232 226.342 157.299C226.342 156.432 226.509 155.682 226.842 155.049C227.175 154.416 227.617 153.899 228.167 153.499C228.717 153.082 229.317 152.774 229.967 152.574C230.617 152.374 231.259 152.274 231.892 152.274C232.959 152.274 233.867 152.524 234.617 153.024C235.384 153.524 235.967 154.166 236.367 154.949C236.767 155.732 236.967 156.566 236.967 157.449C236.967 158.466 236.709 159.366 236.192 160.149C235.692 160.916 235.025 161.516 234.192 161.949C233.359 162.366 232.45 162.574 231.467 162.574ZM232.217 162.049C232.884 162.049 233.384 161.724 233.717 161.074C234.05 160.424 234.217 159.507 234.217 158.324C234.217 157.107 234.059 156.091 233.742 155.274C233.442 154.457 233.05 153.841 232.567 153.424C232.084 153.007 231.575 152.799 231.042 152.799C230.392 152.799 229.892 153.091 229.542 153.674C229.209 154.257 229.042 155.157 229.042 156.374C229.042 157.507 229.184 158.507 229.467 159.374C229.75 160.224 230.134 160.882 230.617 161.349C231.1 161.816 231.634 162.049 232.217 162.049ZM238.423 169.124C238.373 169.124 238.348 169.074 238.348 168.974C238.348 168.874 238.373 168.824 238.423 168.824C239.007 168.824 239.382 168.716 239.548 168.499C239.732 168.282 239.823 167.816 239.823 167.099V155.524C239.823 155.007 239.765 154.632 239.648 154.399C239.532 154.149 239.323 154.024 239.023 154.024C238.89 154.024 238.723 154.057 238.523 154.124C238.323 154.174 238.107 154.257 237.873 154.374C237.807 154.407 237.748 154.374 237.698 154.274C237.648 154.174 237.64 154.116 237.673 154.099L241.223 152.374C241.257 152.357 241.298 152.349 241.348 152.349C241.532 152.349 241.707 152.549 241.873 152.949C242.057 153.349 242.148 153.924 242.148 154.674V167.099C242.148 167.566 242.198 167.924 242.298 168.174C242.415 168.424 242.632 168.591 242.948 168.674C243.265 168.774 243.74 168.824 244.373 168.824C244.423 168.824 244.448 168.874 244.448 168.974C244.448 169.074 244.423 169.124 244.373 169.124C243.907 169.124 243.382 169.116 242.798 169.099C242.215 169.082 241.598 169.074 240.948 169.074C240.482 169.074 240.023 169.082 239.573 169.099C239.14 169.116 238.757 169.124 238.423 169.124ZM244.298 162.574C243.648 162.574 243.09 162.524 242.623 162.424C242.173 162.324 241.632 162.166 240.998 161.949L241.873 160.374C242.24 160.824 242.632 161.199 243.048 161.499C243.482 161.799 244.057 161.949 244.773 161.949C245.557 161.949 246.173 161.607 246.623 160.924C247.073 160.241 247.298 159.149 247.298 157.649C247.298 156.316 246.99 155.324 246.373 154.674C245.757 154.007 245.032 153.674 244.198 153.674C243.582 153.674 243.048 153.832 242.598 154.149C242.148 154.466 241.707 154.866 241.273 155.349L241.023 155.049C241.873 154.066 242.682 153.357 243.448 152.924C244.232 152.491 245.032 152.274 245.848 152.274C246.548 152.274 247.198 152.457 247.798 152.824C248.398 153.174 248.882 153.691 249.248 154.374C249.632 155.057 249.823 155.891 249.823 156.874C249.823 157.941 249.648 158.841 249.298 159.574C248.965 160.307 248.523 160.899 247.973 161.349C247.423 161.782 246.823 162.091 246.173 162.274C245.54 162.474 244.915 162.574 244.298 162.574ZM256.466 162.549C255.382 162.549 254.457 162.324 253.691 161.874C252.941 161.424 252.366 160.832 251.966 160.099C251.582 159.349 251.391 158.549 251.391 157.699C251.391 156.716 251.632 155.824 252.116 155.024C252.599 154.224 253.266 153.582 254.116 153.099C254.966 152.616 255.941 152.374 257.041 152.374C258.024 152.374 258.807 152.599 259.391 153.049C259.991 153.499 260.291 154.232 260.291 155.249C260.291 155.466 260.274 155.649 260.241 155.799C260.207 155.949 260.132 156.024 260.016 156.024H257.616C257.649 155.074 257.557 154.316 257.341 153.749C257.124 153.166 256.707 152.874 256.091 152.874C255.424 152.874 254.891 153.216 254.491 153.899C254.107 154.582 253.916 155.491 253.916 156.624C253.916 157.591 254.066 158.424 254.366 159.124C254.666 159.824 255.107 160.366 255.691 160.749C256.274 161.132 256.991 161.324 257.841 161.324C258.341 161.324 258.757 161.266 259.091 161.149C259.441 161.016 259.824 160.841 260.241 160.624C260.274 160.591 260.316 160.607 260.366 160.674C260.432 160.741 260.449 160.799 260.416 160.849C259.799 161.466 259.166 161.907 258.516 162.174C257.882 162.424 257.199 162.549 256.466 162.549ZM253.041 156.049L253.016 155.574L258.491 155.474V156.024L253.041 156.049ZM265.065 155.474L264.865 155.149C265.515 154.399 266.065 153.824 266.515 153.424C266.965 153.024 267.348 152.749 267.665 152.599C267.982 152.432 268.265 152.349 268.515 152.349C268.865 152.349 269.223 152.482 269.59 152.749C269.973 152.999 270.165 153.332 270.165 153.749C270.165 154.099 270.057 154.391 269.84 154.624C269.64 154.841 269.357 154.949 268.99 154.949C268.64 154.949 268.373 154.857 268.19 154.674C268.023 154.491 267.865 154.316 267.715 154.149C267.582 153.966 267.382 153.874 267.115 153.874C266.998 153.874 266.865 153.916 266.715 153.999C266.582 154.066 266.382 154.216 266.115 154.449C265.865 154.666 265.515 155.007 265.065 155.474ZM262.015 162.249C261.965 162.249 261.94 162.199 261.94 162.099C261.94 161.999 261.965 161.949 262.015 161.949C262.532 161.949 262.882 161.832 263.065 161.599C263.248 161.349 263.34 160.891 263.34 160.224V155.524C263.34 155.007 263.282 154.632 263.165 154.399C263.048 154.149 262.848 154.024 262.565 154.024C262.415 154.024 262.24 154.057 262.04 154.124C261.84 154.174 261.615 154.257 261.365 154.374C261.298 154.407 261.248 154.374 261.215 154.274C261.182 154.174 261.182 154.116 261.215 154.099L264.69 152.399C264.79 152.366 264.848 152.349 264.865 152.349C265.048 152.349 265.232 152.549 265.415 152.949C265.598 153.349 265.69 153.924 265.69 154.674V160.224C265.69 160.657 265.757 161.007 265.89 161.274C266.023 161.524 266.248 161.699 266.565 161.799C266.898 161.899 267.348 161.949 267.915 161.949C267.982 161.949 268.015 161.999 268.015 162.099C268.015 162.199 267.982 162.249 267.915 162.249C267.465 162.249 266.948 162.241 266.365 162.224C265.798 162.207 265.182 162.199 264.515 162.199C264.048 162.199 263.598 162.207 263.165 162.224C262.732 162.241 262.348 162.249 262.015 162.249ZM273.463 153.799C273.463 154.149 273.554 154.466 273.738 154.749C273.938 155.016 274.188 155.266 274.488 155.499C274.788 155.716 275.113 155.932 275.463 156.149C275.879 156.382 276.288 156.632 276.688 156.899C277.088 157.149 277.421 157.457 277.688 157.824C277.954 158.191 278.088 158.666 278.088 159.249C278.088 159.782 277.946 160.307 277.663 160.824C277.396 161.324 276.988 161.732 276.438 162.049C275.888 162.366 275.196 162.524 274.363 162.524C273.946 162.524 273.529 162.474 273.113 162.374C272.696 162.291 272.246 162.116 271.763 161.849C271.729 161.816 271.696 161.774 271.663 161.724C271.629 161.674 271.613 161.616 271.613 161.549L271.563 159.074C271.563 159.024 271.604 158.999 271.688 158.999C271.788 158.982 271.846 158.991 271.863 159.024C272.046 159.557 272.304 160.057 272.638 160.524C272.971 160.974 273.346 161.341 273.763 161.624C274.196 161.891 274.629 162.024 275.063 162.024C275.396 162.024 275.671 161.924 275.888 161.724C276.104 161.507 276.213 161.182 276.213 160.749C276.213 160.282 276.104 159.899 275.888 159.599C275.688 159.282 275.429 159.016 275.113 158.799C274.796 158.566 274.471 158.357 274.138 158.174C273.754 157.957 273.371 157.732 272.988 157.499C272.604 157.266 272.288 156.974 272.038 156.624C271.788 156.257 271.663 155.782 271.663 155.199C271.663 154.499 271.838 153.941 272.188 153.524C272.538 153.107 272.988 152.807 273.538 152.624C274.104 152.441 274.688 152.349 275.288 152.349C275.654 152.349 275.988 152.374 276.288 152.424C276.604 152.474 276.963 152.574 277.363 152.724C277.513 152.774 277.588 152.866 277.588 152.999C277.588 153.332 277.579 153.682 277.563 154.049C277.546 154.399 277.538 154.791 277.538 155.224C277.538 155.274 277.488 155.299 277.388 155.299C277.288 155.299 277.238 155.274 277.238 155.224C277.238 154.907 277.104 154.566 276.838 154.199C276.588 153.832 276.254 153.516 275.838 153.249C275.421 152.966 274.971 152.824 274.488 152.824C274.254 152.824 274.021 152.882 273.788 152.999C273.571 153.116 273.463 153.382 273.463 153.799ZM286.42 158.974C286.42 158.324 286.595 157.741 286.945 157.224C287.295 156.707 287.745 156.224 288.295 155.774C288.862 155.307 289.453 154.849 290.07 154.399C290.703 153.932 291.295 153.441 291.845 152.924C292.412 152.407 292.87 151.841 293.22 151.224C293.57 150.607 293.745 149.907 293.745 149.124C293.745 148.374 293.57 147.799 293.22 147.399C292.87 146.982 292.428 146.774 291.895 146.774C291.428 146.774 291.095 146.932 290.895 147.249C290.695 147.549 290.595 147.991 290.595 148.574C290.595 149.491 290.803 150.424 291.22 151.374C291.653 152.324 292.22 153.257 292.92 154.174C293.637 155.091 294.428 155.966 295.295 156.799C296.178 157.632 297.07 158.391 297.97 159.074C299.153 159.957 300.17 160.632 301.02 161.099C301.87 161.549 302.503 161.832 302.92 161.949C302.987 161.966 303.012 162.024 302.995 162.124C302.995 162.207 302.97 162.249 302.92 162.249C302.403 162.249 301.778 162.249 301.045 162.249C300.328 162.249 299.587 162.249 298.82 162.249C298.637 162.249 298.395 162.182 298.095 162.049C297.795 161.916 297.387 161.682 296.87 161.349C296.37 160.999 295.712 160.499 294.895 159.849C294.195 159.282 293.462 158.641 292.695 157.924C291.928 157.207 291.212 156.466 290.545 155.699C289.895 154.916 289.37 154.157 288.97 153.424C288.753 153.007 288.578 152.591 288.445 152.174C288.312 151.741 288.245 151.257 288.245 150.724C288.245 149.841 288.437 149.049 288.82 148.349C289.203 147.649 289.753 147.099 290.47 146.699C291.187 146.299 292.045 146.099 293.045 146.099C293.728 146.099 294.32 146.199 294.82 146.399C295.32 146.599 295.703 146.882 295.97 147.249C296.253 147.616 296.395 148.066 296.395 148.599C296.395 149.266 296.212 149.857 295.845 150.374C295.495 150.891 295.037 151.366 294.47 151.799C293.903 152.232 293.303 152.657 292.67 153.074C292.037 153.491 291.437 153.916 290.87 154.349C290.303 154.782 289.837 155.257 289.47 155.774C289.12 156.291 288.945 156.882 288.945 157.549C288.945 158.182 289.128 158.791 289.495 159.374C289.862 159.941 290.387 160.407 291.07 160.774C291.77 161.141 292.603 161.324 293.57 161.324C294.253 161.324 294.845 161.224 295.345 161.024C295.845 160.807 296.253 160.499 296.57 160.099C296.903 159.699 297.145 159.207 297.295 158.624C297.462 158.024 297.545 157.349 297.545 156.599C297.545 155.649 297.387 154.949 297.07 154.499C296.77 154.049 296.253 153.824 295.52 153.824C295.487 153.824 295.462 153.774 295.445 153.674C295.445 153.574 295.47 153.524 295.52 153.524L301.47 153.499C301.52 153.499 301.545 153.549 301.545 153.649C301.545 153.749 301.52 153.799 301.47 153.799C300.97 153.799 300.595 153.857 300.345 153.974C300.095 154.091 299.903 154.291 299.77 154.574C299.653 154.841 299.528 155.216 299.395 155.699C299.262 156.182 299.087 156.732 298.87 157.349C298.653 157.949 298.362 158.557 297.995 159.174C297.645 159.774 297.187 160.332 296.62 160.849C296.07 161.366 295.387 161.782 294.57 162.099C293.753 162.399 292.778 162.549 291.645 162.549C290.445 162.549 289.453 162.374 288.67 162.024C287.903 161.674 287.337 161.224 286.97 160.674C286.603 160.124 286.42 159.557 286.42 158.974ZM316.2 153.874L316.475 153.424C317.625 153.424 318.616 153.607 319.45 153.974C320.3 154.341 320.958 154.849 321.425 155.499C321.891 156.132 322.125 156.874 322.125 157.724C322.125 158.591 321.875 159.374 321.375 160.074C320.875 160.774 320.183 161.332 319.3 161.749C318.433 162.149 317.45 162.349 316.35 162.349C315.9 162.349 315.325 162.324 314.625 162.274C313.941 162.224 313.316 162.199 312.75 162.199C312.15 162.199 311.575 162.207 311.025 162.224C310.491 162.241 310.008 162.249 309.575 162.249C309.525 162.249 309.5 162.199 309.5 162.099C309.5 161.999 309.525 161.949 309.575 161.949C310.041 161.949 310.4 161.907 310.65 161.824C310.916 161.741 311.1 161.574 311.2 161.324C311.316 161.074 311.375 160.707 311.375 160.224V148.649C311.375 148.166 311.325 147.807 311.225 147.574C311.125 147.324 310.941 147.157 310.675 147.074C310.425 146.974 310.066 146.924 309.6 146.924C309.566 146.924 309.55 146.874 309.55 146.774C309.55 146.674 309.566 146.624 309.6 146.624C310.033 146.624 310.516 146.641 311.05 146.674C311.583 146.691 312.15 146.699 312.75 146.699C313.233 146.699 313.733 146.674 314.25 146.624C314.766 146.574 315.291 146.549 315.825 146.549C316.825 146.549 317.675 146.674 318.375 146.924C319.091 147.157 319.641 147.516 320.025 147.999C320.408 148.466 320.6 149.057 320.6 149.774C320.6 150.691 320.233 151.532 319.5 152.299C318.766 153.049 317.666 153.574 316.2 153.874ZM315.45 147.099C315.133 147.099 314.875 147.149 314.675 147.249C314.491 147.349 314.358 147.516 314.275 147.749C314.208 147.966 314.175 148.282 314.175 148.699V153.599L313.25 153.424C313.8 153.441 314.25 153.457 314.6 153.474C314.95 153.474 315.141 153.474 315.175 153.474C316.075 153.474 316.75 153.141 317.2 152.474C317.65 151.791 317.875 150.966 317.875 149.999C317.875 149.366 317.775 148.832 317.575 148.399C317.391 147.966 317.116 147.641 316.75 147.424C316.4 147.207 315.966 147.099 315.45 147.099ZM315.925 161.724C317.075 161.724 317.908 161.432 318.425 160.849C318.941 160.249 319.2 159.407 319.2 158.324C319.2 157.091 318.9 156.091 318.3 155.324C317.716 154.541 316.775 154.149 315.475 154.149C315.308 154.149 315.025 154.157 314.625 154.174C314.225 154.174 313.8 154.216 313.35 154.299L314.175 153.999V160.224C314.175 160.557 314.208 160.841 314.275 161.074C314.358 161.291 314.525 161.457 314.775 161.574C315.025 161.674 315.408 161.724 315.925 161.724ZM328.218 162.549C327.301 162.549 326.576 162.257 326.043 161.674C325.526 161.091 325.268 160.341 325.268 159.424V155.749C325.268 155.199 325.201 154.791 325.068 154.524C324.951 154.257 324.76 154.124 324.493 154.124C324.31 154.124 324.101 154.182 323.868 154.299C323.801 154.316 323.743 154.274 323.693 154.174C323.66 154.074 323.668 154.016 323.718 153.999L327.068 152.399C327.118 152.382 327.16 152.374 327.193 152.374C327.276 152.374 327.36 152.416 327.443 152.499C327.543 152.566 327.593 152.632 327.593 152.699V158.224C327.593 159.124 327.76 159.799 328.093 160.249C328.443 160.699 328.968 160.924 329.668 160.924C330.151 160.924 330.635 160.791 331.118 160.524C331.601 160.241 331.985 159.891 332.268 159.474L332.418 159.774C331.851 160.591 331.218 161.257 330.518 161.774C329.818 162.291 329.051 162.549 328.218 162.549ZM334.118 152.699V159.349C334.118 159.916 334.168 160.316 334.268 160.549C334.385 160.782 334.568 160.899 334.818 160.899C334.935 160.899 335.076 160.874 335.243 160.824C335.426 160.774 335.626 160.707 335.843 160.624C335.91 160.591 335.968 160.624 336.018 160.724C336.068 160.807 336.068 160.866 336.018 160.899L332.568 162.574C332.535 162.591 332.493 162.599 332.443 162.599C332.276 162.599 332.126 162.391 331.993 161.974C331.86 161.557 331.793 160.966 331.793 160.199V155.749C331.793 155.199 331.726 154.791 331.593 154.524C331.476 154.257 331.285 154.124 331.018 154.124C330.835 154.124 330.618 154.182 330.368 154.299C330.318 154.316 330.268 154.274 330.218 154.174C330.185 154.074 330.193 154.016 330.243 153.999L333.593 152.399C333.626 152.382 333.668 152.374 333.718 152.374C333.801 152.374 333.885 152.416 333.968 152.499C334.068 152.566 334.118 152.632 334.118 152.699ZM337.015 162.249C336.965 162.249 336.94 162.199 336.94 162.099C336.94 161.999 336.965 161.949 337.015 161.949C337.532 161.949 337.882 161.832 338.065 161.599C338.248 161.349 338.34 160.891 338.34 160.224V155.749C338.34 155.199 338.282 154.799 338.165 154.549C338.065 154.282 337.873 154.149 337.59 154.149C337.473 154.149 337.332 154.174 337.165 154.224C337.015 154.274 336.848 154.341 336.665 154.424C336.598 154.441 336.54 154.399 336.49 154.299C336.457 154.199 336.465 154.141 336.515 154.124L340.29 152.374C340.323 152.357 340.348 152.349 340.365 152.349C340.448 152.349 340.532 152.391 340.615 152.474C340.698 152.557 340.74 152.632 340.74 152.699C340.74 152.899 340.732 153.232 340.715 153.699C340.698 154.166 340.69 154.832 340.69 155.699V160.224C340.69 160.891 340.782 161.349 340.965 161.599C341.165 161.832 341.523 161.949 342.04 161.949C342.09 161.949 342.115 161.999 342.115 162.099C342.115 162.199 342.09 162.249 342.04 162.249C341.707 162.249 341.323 162.241 340.89 162.224C340.457 162.207 339.998 162.199 339.515 162.199C339.048 162.199 338.598 162.207 338.165 162.224C337.732 162.241 337.348 162.249 337.015 162.249ZM339.415 149.874C338.948 149.874 338.573 149.741 338.29 149.474C338.023 149.207 337.89 148.832 337.89 148.349C337.89 147.916 338.023 147.574 338.29 147.324C338.573 147.057 338.948 146.924 339.415 146.924C339.882 146.924 340.24 147.057 340.49 147.324C340.74 147.574 340.865 147.916 340.865 148.349C340.865 149.366 340.382 149.874 339.415 149.874ZM343.482 162.249C343.449 162.249 343.432 162.199 343.432 162.099C343.432 161.999 343.449 161.949 343.482 161.949C343.999 161.949 344.349 161.832 344.532 161.599C344.732 161.349 344.832 160.891 344.832 160.224L344.857 147.524C344.857 146.957 344.807 146.549 344.707 146.299C344.607 146.032 344.416 145.899 344.132 145.899C343.916 145.899 343.599 145.991 343.182 146.174C343.132 146.191 343.082 146.149 343.032 146.049C342.982 145.949 342.974 145.891 343.007 145.874L346.682 144.149C346.716 144.132 346.749 144.124 346.782 144.124C346.866 144.124 346.957 144.166 347.057 144.249C347.157 144.316 347.207 144.382 347.207 144.449V160.224C347.207 160.891 347.299 161.349 347.482 161.599C347.666 161.832 348.016 161.949 348.532 161.949C348.599 161.949 348.632 161.999 348.632 162.099C348.632 162.199 348.599 162.249 348.532 162.249C348.216 162.249 347.832 162.241 347.382 162.224C346.949 162.207 346.491 162.199 346.007 162.199C345.524 162.199 345.066 162.207 344.632 162.224C344.199 162.241 343.816 162.249 343.482 162.249ZM354.022 162.574C353.305 162.574 352.647 162.382 352.047 161.999C351.464 161.616 350.989 161.066 350.622 160.349C350.272 159.616 350.097 158.732 350.097 157.699C350.097 156.682 350.28 155.832 350.647 155.149C351.014 154.449 351.48 153.891 352.047 153.474C352.63 153.057 353.255 152.757 353.922 152.574C354.589 152.374 355.222 152.274 355.822 152.274C356.422 152.274 356.98 152.349 357.497 152.499C358.014 152.649 358.48 152.832 358.897 153.049L358.322 155.074C357.972 154.324 357.572 153.782 357.122 153.449C356.672 153.099 356.114 152.924 355.447 152.924C354.597 152.924 353.922 153.224 353.422 153.824C352.922 154.407 352.672 155.432 352.672 156.899C352.672 157.849 352.789 158.657 353.022 159.324C353.255 159.991 353.58 160.499 353.997 160.849C354.414 161.199 354.88 161.374 355.397 161.374C356.064 161.374 356.647 161.191 357.147 160.824C357.647 160.457 358.13 160.016 358.597 159.499L358.847 159.724C358.497 160.124 358.08 160.549 357.597 160.999C357.13 161.432 356.597 161.807 355.997 162.124C355.414 162.424 354.755 162.574 354.022 162.574ZM360.122 144.449V159.349C360.122 159.916 360.172 160.316 360.272 160.549C360.389 160.782 360.572 160.899 360.822 160.899C360.939 160.899 361.08 160.874 361.247 160.824C361.43 160.774 361.63 160.707 361.847 160.624C361.897 160.591 361.947 160.624 361.997 160.724C362.047 160.807 362.055 160.866 362.022 160.899L358.572 162.574C358.522 162.591 358.48 162.599 358.447 162.599C358.28 162.599 358.122 162.391 357.972 161.974C357.839 161.557 357.772 160.966 357.772 160.199V147.524C357.772 146.957 357.722 146.549 357.622 146.299C357.522 146.032 357.33 145.899 357.047 145.899C356.93 145.899 356.789 145.924 356.622 145.974C356.472 146.024 356.305 146.091 356.122 146.174C356.055 146.191 355.997 146.149 355.947 146.049C355.897 145.949 355.889 145.891 355.922 145.874L359.597 144.149C359.63 144.132 359.664 144.124 359.697 144.124C359.78 144.124 359.872 144.166 359.972 144.249C360.072 144.316 360.122 144.382 360.122 144.449ZM367.916 162.549C366.833 162.549 365.908 162.324 365.141 161.874C364.391 161.424 363.816 160.832 363.416 160.099C363.033 159.349 362.841 158.549 362.841 157.699C362.841 156.716 363.083 155.824 363.566 155.024C364.049 154.224 364.716 153.582 365.566 153.099C366.416 152.616 367.391 152.374 368.491 152.374C369.474 152.374 370.258 152.599 370.841 153.049C371.441 153.499 371.741 154.232 371.741 155.249C371.741 155.466 371.724 155.649 371.691 155.799C371.658 155.949 371.583 156.024 371.466 156.024H369.066C369.099 155.074 369.008 154.316 368.791 153.749C368.574 153.166 368.158 152.874 367.541 152.874C366.874 152.874 366.341 153.216 365.941 153.899C365.558 154.582 365.366 155.491 365.366 156.624C365.366 157.591 365.516 158.424 365.816 159.124C366.116 159.824 366.558 160.366 367.141 160.749C367.724 161.132 368.441 161.324 369.291 161.324C369.791 161.324 370.208 161.266 370.541 161.149C370.891 161.016 371.274 160.841 371.691 160.624C371.724 160.591 371.766 160.607 371.816 160.674C371.883 160.741 371.899 160.799 371.866 160.849C371.249 161.466 370.616 161.907 369.966 162.174C369.333 162.424 368.649 162.549 367.916 162.549ZM364.491 156.049L364.466 155.574L369.941 155.474V156.024L364.491 156.049ZM376.515 155.474L376.315 155.149C376.965 154.399 377.515 153.824 377.965 153.424C378.415 153.024 378.799 152.749 379.115 152.599C379.432 152.432 379.715 152.349 379.965 152.349C380.315 152.349 380.674 152.482 381.04 152.749C381.424 152.999 381.615 153.332 381.615 153.749C381.615 154.099 381.507 154.391 381.29 154.624C381.09 154.841 380.807 154.949 380.44 154.949C380.09 154.949 379.824 154.857 379.64 154.674C379.474 154.491 379.315 154.316 379.165 154.149C379.032 153.966 378.832 153.874 378.565 153.874C378.449 153.874 378.315 153.916 378.165 153.999C378.032 154.066 377.832 154.216 377.565 154.449C377.315 154.666 376.965 155.007 376.515 155.474ZM373.465 162.249C373.415 162.249 373.39 162.199 373.39 162.099C373.39 161.999 373.415 161.949 373.465 161.949C373.982 161.949 374.332 161.832 374.515 161.599C374.699 161.349 374.79 160.891 374.79 160.224V155.524C374.79 155.007 374.732 154.632 374.615 154.399C374.499 154.149 374.299 154.024 374.015 154.024C373.865 154.024 373.69 154.057 373.49 154.124C373.29 154.174 373.065 154.257 372.815 154.374C372.749 154.407 372.699 154.374 372.665 154.274C372.632 154.174 372.632 154.116 372.665 154.099L376.14 152.399C376.24 152.366 376.299 152.349 376.315 152.349C376.499 152.349 376.682 152.549 376.865 152.949C377.049 153.349 377.14 153.924 377.14 154.674V160.224C377.14 160.657 377.207 161.007 377.34 161.274C377.474 161.524 377.699 161.699 378.015 161.799C378.349 161.899 378.799 161.949 379.365 161.949C379.432 161.949 379.465 161.999 379.465 162.099C379.465 162.199 379.432 162.249 379.365 162.249C378.915 162.249 378.399 162.241 377.815 162.224C377.249 162.207 376.632 162.199 375.965 162.199C375.499 162.199 375.049 162.207 374.615 162.224C374.182 162.241 373.799 162.249 373.465 162.249ZM384.913 153.799C384.913 154.149 385.005 154.466 385.188 154.749C385.388 155.016 385.638 155.266 385.938 155.499C386.238 155.716 386.563 155.932 386.913 156.149C387.33 156.382 387.738 156.632 388.138 156.899C388.538 157.149 388.871 157.457 389.138 157.824C389.405 158.191 389.538 158.666 389.538 159.249C389.538 159.782 389.396 160.307 389.113 160.824C388.846 161.324 388.438 161.732 387.888 162.049C387.338 162.366 386.646 162.524 385.813 162.524C385.396 162.524 384.98 162.474 384.563 162.374C384.146 162.291 383.696 162.116 383.213 161.849C383.18 161.816 383.146 161.774 383.113 161.724C383.08 161.674 383.063 161.616 383.063 161.549L383.013 159.074C383.013 159.024 383.055 158.999 383.138 158.999C383.238 158.982 383.296 158.991 383.313 159.024C383.496 159.557 383.755 160.057 384.088 160.524C384.421 160.974 384.796 161.341 385.213 161.624C385.646 161.891 386.08 162.024 386.513 162.024C386.846 162.024 387.121 161.924 387.338 161.724C387.555 161.507 387.663 161.182 387.663 160.749C387.663 160.282 387.555 159.899 387.338 159.599C387.138 159.282 386.88 159.016 386.563 158.799C386.246 158.566 385.921 158.357 385.588 158.174C385.205 157.957 384.821 157.732 384.438 157.499C384.055 157.266 383.738 156.974 383.488 156.624C383.238 156.257 383.113 155.782 383.113 155.199C383.113 154.499 383.288 153.941 383.638 153.524C383.988 153.107 384.438 152.807 384.988 152.624C385.555 152.441 386.138 152.349 386.738 152.349C387.105 152.349 387.438 152.374 387.738 152.424C388.055 152.474 388.413 152.574 388.813 152.724C388.963 152.774 389.038 152.866 389.038 152.999C389.038 153.332 389.03 153.682 389.013 154.049C388.996 154.399 388.988 154.791 388.988 155.224C388.988 155.274 388.938 155.299 388.838 155.299C388.738 155.299 388.688 155.274 388.688 155.224C388.688 154.907 388.555 154.566 388.288 154.199C388.038 153.832 387.705 153.516 387.288 153.249C386.871 152.966 386.421 152.824 385.938 152.824C385.705 152.824 385.471 152.882 385.238 152.999C385.021 153.116 384.913 153.382 384.913 153.799Z" fill="#A9A9A9"/>
<line x1="142.463" y1="89.749" x2="154.463" y2="89.749" stroke="#0A0A0A"/>
<line x1="162.463" y1="89.749" x2="174.463" y2="89.749" stroke="#0A0A0A"/>
<line x1="197.463" y1="89.749" x2="209.463" y2="89.749" stroke="#0A0A0A"/>
<line x1="180.463" y1="89.749" x2="192.463" y2="89.749" stroke="#0A0A0A"/>
<defs>
<filter id="filter0_di_12_795" x="157.963" y="8.74988" width="55.088" height="82.0372" filterUnits="userSpaceOnUse" color-interpolation-filters="sRGB">
<feFlood flood-opacity="0" result="BackgroundImageFix"/>
<feColorMatrix in="SourceAlpha" type="matrix" values="0 0 0 0 0 0 0 0 0 0 0 0 0 0 0 0 0 0 127 0" result="hardAlpha"/>
<feOffset dy="4"/>
<feGaussianBlur stdDeviation="2"/>
<feComposite in2="hardAlpha" operator="out"/>
<feColorMatrix type="matrix" values="0 0 0 0 1 0 0 0 0 0.843137 0 0 0 0 0 0 0 0 1 0"/>
<feBlend mode="normal" in2="BackgroundImageFix" result="effect1_dropShadow_12_795"/>
<feBlend mode="normal" in="SourceGraphic" in2="effect1_dropShadow_12_795" result="shape"/>
<feColorMatrix in="SourceAlpha" type="matrix" values="0 0 0 0 0 0 0 0 0 0 0 0 0 0 0 0 0 0 127 0" result="hardAlpha"/>
<feOffset dy="4"/>
<feGaussianBlur stdDeviation="2"/>
<feComposite in2="hardAlpha" operator="arithmetic" k2="-1" k3="1"/>
<feColorMatrix type="matrix" values="0 0 0 0 0.605917 0 0 0 0 0.615385 0 0 0 0 0.605917 0 0 0 1 0"/>
<feBlend mode="normal" in2="shape" result="effect2_innerShadow_12_795"/>
</filter>
<filter id="filter1_d_12_795" x="120.383" y="87.0891" width="257.288" height="56.92" filterUnits="userSpaceOnUse" color-interpolation-filters="sRGB">
<feFlood flood-opacity="0" result="BackgroundImageFix"/>
<feColorMatrix in="SourceAlpha" type="matrix" values="0 0 0 0 0 0 0 0 0 0 0 0 0 0 0 0 0 0 127 0" result="hardAlpha"/>
<feOffset/>
<feGaussianBlur stdDeviation="7.5"/>
<feComposite in2="hardAlpha" operator="out"/>
<feColorMatrix type="matrix" values="0 0 0 0 0 0 0 0 0 0 0 0 0 0 0 0 0 0 0.25 0"/>
<feBlend mode="normal" in2="BackgroundImageFix" result="effect1_dropShadow_12_795"/>
<feBlend mode="normal" in="SourceGraphic" in2="effect1_dropShadow_12_795" result="shape"/>
</filter>
<linearGradient id="paint0_linear_12_795" x1="111.463" y1="-25.751" x2="111.463" y2="247.249" gradientUnits="userSpaceOnUse">
<stop stop-color="#5C3B00"/>
<stop offset="0.25" stop-color="#B8860B"/>
<stop offset="0.576923" stop-color="#FFF2AB"/>
<stop offset="0.759615" stop-color="#FFD700"/>
<stop offset="0.947115" stop-color="#7A5200"/>
</linearGradient>
<linearGradient id="paint1_linear_12_795" x1="46.9629" y1="139.249" x2="401.463" y2="77.749" gradientUnits="userSpaceOnUse">
<stop stop-color="#5C3B00"/>
<stop offset="0.100962" stop-color="#B8860B"/>
<stop offset="0.447115" stop-color="#FFF2AB"/>
<stop offset="0.802885" stop-color="#FFD700"/>
<stop offset="1" stop-color="#7A5200"/>
</linearGradient>
</defs>
</svg>
